<svg id="Layer_1" height="512" viewBox="0 0 512 512" width="512" xmlns="http://www.w3.org/2000/svg" data-name="Layer 1"><path d="m468.55 17.69a5.359 5.359 0 0 1 -2.34 9.65 6.822 6.822 0 0 1 .28 5.68 6.476 6.476 0 0 1 -10.7 1.77 6.3 6.3 0 0 1 -1.11-6.87l.05-.11a6.427 6.427 0 0 1 6.07-11.28l1.65 1.05a5.364 5.364 0 0 1 6.1.11z" fill="#ffebc7"/><path d="m443.92 73.74a8.236 8.236 0 1 1 -9.58 12.91 10.464 10.464 0 0 1 -7.15 5.05 9.954 9.954 0 0 1 -11.11-12.44 9.661 9.661 0 0 1 8.01-7.09l.18-.03a9.88 9.88 0 0 1 19.64-1.42z" fill="#ffde8d"/><path d="m414.03 19.79a5.353 5.353 0 0 1 -2.34 9.64 6.824 6.824 0 0 1 .28 5.68 6.468 6.468 0 0 1 -10.7 1.77 6.281 6.281 0 0 1 -1.11-6.86l.05-.11a6.425 6.425 0 0 1 6.06-11.28l1.66 1.05a5.364 5.364 0 0 1 6.1.11z" fill="#f5cb52"/><path d="m388.24 65.3a9.968 9.968 0 0 1 -4.36 17.94 12.6 12.6 0 0 1 .52 10.56 12.029 12.029 0 0 1 -19.89 3.29 11.676 11.676 0 0 1 -2.06-12.76l.09-.21a11.947 11.947 0 0 1 11.28-20.97l3.08 1.94a9.976 9.976 0 0 1 11.34.21z" fill="#ffebc7"/><path d="m379.71 129.17a11.948 11.948 0 0 1 2.65 16.69l-2.57 2.59a9.957 9.957 0 1 1 -19.22 2.88 12.642 12.642 0 0 1 -10.43-1.78 12.032 12.032 0 0 1 1.1-20.13 11.691 11.691 0 0 1 12.91.76l.18.13a11.926 11.926 0 0 1 15.38-1.14z" fill="#ffde8d"/><path d="m339.73 49.81a9.957 9.957 0 0 1 -4.35 17.93 12.66 12.66 0 0 1 .52 10.57 12.03 12.03 0 0 1 -19.89 3.29 11.7 11.7 0 0 1 -2.06-12.77l.09-.21a11.945 11.945 0 0 1 11.27-20.97l3.09 1.95a9.943 9.943 0 0 1 11.33.21z" fill="#ffebc7"/><path d="m332.84 183.92a11.776 11.776 0 0 1 -3.12 22.87l-.03.24a14.135 14.135 0 0 1 -27.32 2.83s-2.99.09-3.99.03c-9.32-.61-15.16-11.48-10.71-20.41a14.076 14.076 0 0 1 10.95-7.65 14.234 14.234 0 0 1 6.13.63l.12-2.61a14.135 14.135 0 0 1 28.01 3.83z" fill="#ffebc7"/><path d="m118.5 190.65c3.73-4.24 10.4-6.17 20.82-1.85 0 0-.62-26.97 29.52-15.95 0 0 9.58-17.56 25.47-1.52 3-6.89 47.57-2.14 32.87 32.25a14.427 14.427 0 0 0 -3.82-1.17 14.082 14.082 0 0 0 -12.61 4.4c-6.7 7.4-4.01 19.45 4.8 22.54.94.33 3.84 1.05 3.84 1.05a14.145 14.145 0 0 0 27.08 4.67l.09-.23a11.763 11.763 0 0 0 13.25-6.83c15.6-15.34 37.5-3.91 44.33 11.56.89 2.02 4.53 10.21 5.07 12.1l2.22-1.38a14.139 14.139 0 0 1 12.65 25.29l-.22.1a10.427 10.427 0 0 1 .33 4.57 14.85 14.85 0 0 1 -15.91 12.86l-.01.04c-2.97-.67-6.16-1.47-9.54-2.38-10.14-2.72-22.03-6.49-35.11-11.13-11.32-4.02-23.53-8.7-36.28-13.95q-8.22-3.375-16.69-7.05-9.315-4.035-18.15-8.11c-11.96-5.5-23.2-10.98-33.43-16.28-12.04-6.22-22.68-12.2-31.47-17.64-4.16-2.57-7.91-5.03-11.2-7.33v-.01c-2.67-4.83-2.48-13.45 2.1-18.62z" fill="#ffebc7"/><path d="m327.26 295.85-121.9 200.15q-11.19-.06-21.97-1.06l115.34-204.17c3.38.91 6.57 1.71 9.54 2.38 8.03 1.82 14.49 2.76 18.99 2.69z" fill="#ed5950"/><path d="m327.26 295.84c-4.5.07-10.96-.87-18.99-2.69l.01-.04a14.85 14.85 0 0 0 15.91-12.86c7.54 5.89 11.25 10.48 10.1 13.15-.7 1.61-3.13 2.4-7.03 2.44z" fill="#dbbd79"/><path d="m288.61 107.87c10.65 1.11 16.85 13.83 11.35 23.87a16.208 16.208 0 0 1 -19.89 7.26l-.24 2.99a16.208 16.208 0 0 1 -31.92-5.65l.06-.27a13.5 13.5 0 0 1 4.61-26.06l.03-.28a16.207 16.207 0 0 1 31.43-2s3.43.03 4.57.14z" fill="#ffde8d"/><path d="m298.73 290.77-115.34 204.17a227.834 227.834 0 0 1 -28.44-4.45l108.67-210.85c13.08 4.64 24.97 8.41 35.11 11.13z" fill="#ffde8d"/><path d="m263.62 279.64-108.67 210.85a213.586 213.586 0 0 1 -25.27-7.26l97.59-217.38.07-.16c12.75 5.25 24.96 9.93 36.28 13.95z" fill="#ed5950"/><path d="m255.75 213.66a11.779 11.779 0 0 1 -9.19 21.18l-.09.23a14.145 14.145 0 0 1 -27.08-4.67s-2.9-.72-3.84-1.05c-8.81-3.09-11.5-15.14-4.8-22.54a14.082 14.082 0 0 1 12.61-4.4 14.427 14.427 0 0 1 3.82 1.17 14.917 14.917 0 0 1 1.92 1.09l.81-2.48a14.139 14.139 0 0 1 25.94 11.26z" fill="#ffde8d"/><path d="m227.34 265.69-.07.16-97.59 217.38a214.089 214.089 0 0 1 -24.06-10.26v-.01l86.88-222.43q8.82 4.065 18.15 8.11 8.46 3.675 16.69 7.05z" fill="#ffde8d"/><path d="m192.5 250.53-86.88 222.43v.01a221.046 221.046 0 0 1 -24.46-14.35l77.91-224.37c10.23 5.3 21.47 10.78 33.43 16.28z" fill="#ed5950"/><path d="m159.07 234.25-77.91 224.37a239.575 239.575 0 0 1 -23.46-18.12l69.9-223.89c8.79 5.44 19.43 11.42 31.47 17.64z" fill="#ffde8d"/><path d="m116.4 209.28c3.29 2.3 7.04 4.76 11.2 7.33l-69.9 223.89q-8.445-7.38-16.48-15.73l62.66-225.83a79.563 79.563 0 0 0 12.52 10.33z" fill="#ed5950"/><path d="m118.5 190.65c-4.58 5.17-4.77 13.79-2.1 18.62a79.563 79.563 0 0 1 -12.52-10.33c-2.67-2.91-3.77-5.25-3.07-6.87 1.21-2.77 7.54-3.12 17.69-1.42z" fill="#dbbd79"/><path d="m138.5 210.65c3.73-4.24 10.4-6.17 20.82-1.85 0 0-.62-26.97 29.52-15.95 0 0 9.58-17.56 25.47-1.52 1.135-2.607 8.222-3.545 15.8-1.844-1.22-21.5-33.27-23.963-35.8-18.156-15.89-16.04-25.47 1.52-25.47 1.52-30.14-11.02-29.52 15.95-29.52 15.95-10.42-4.32-17.09-2.39-20.82 1.85-4.58 5.17-4.77 13.79-2.1 18.62v.01c3.29 2.3 7.04 4.76 11.2 7.33q3.366 2.083 7.091 4.268a16.549 16.549 0 0 1 3.809-10.228z" fill="#d6c19f"/><path d="m188.75 190.31a9.957 9.957 0 0 1 -4.35 17.93 12.676 12.676 0 0 1 .52 10.56 12.021 12.021 0 0 1 -19.89 3.29 11.657 11.657 0 0 1 -2.06-12.76l.09-.21a11.945 11.945 0 0 1 11.27-20.97l3.09 1.95a9.943 9.943 0 0 1 11.33.21z" fill="#ffde8d"/><g fill="#284268"><path d="m159.5 210.159a14.415 14.415 0 0 0 3.379 14.026 15.336 15.336 0 0 0 11.035 4.815 15.01 15.01 0 0 0 13.754-9c.015-.033.027-.065.041-.1a15.3 15.3 0 0 0 .6-9.712 12.963 12.963 0 1 0 -10.794-23.572l-1.588-1a2.984 2.984 0 0 0 -.407-.215 14.952 14.952 0 0 0 -16.02 24.758zm1.864-14.609a8.956 8.956 0 0 1 11.579-4.732l2.877 1.816a3 3 0 0 0 3.258-.037 6.959 6.959 0 1 1 4.88 12.676 3 3 0 0 0 -2.256 4.276 9.7 9.7 0 0 1 .446 8.107 8.953 8.953 0 0 1 -6.6 5.2 9.262 9.262 0 0 1 -8.371-2.856 8.712 8.712 0 0 1 -1.457-9.48l.09-.207a3 3 0 0 0 -1.124-3.714 8.892 8.892 0 0 1 -3.327-11.049z"/><path d="m325.408 329.868a3 3 0 0 0 2.609-1.514l2.455-4.3a3 3 0 1 0 -5.211-2.972l-2.455 4.3a3 3 0 0 0 2.6 4.487z"/><path d="m284.442 401.668a3 3 0 0 0 2.609-1.513l31.483-55.181a3 3 0 0 0 -5.211-2.974l-31.483 55.181a3 3 0 0 0 1.119 4.092 2.969 2.969 0 0 0 1.483.395z"/><path d="m244.7 137.825a19.239 19.239 0 0 0 15.824 20.248 19.506 19.506 0 0 0 3.385.3 19.216 19.216 0 0 0 18.818-15.573 19.493 19.493 0 0 0 4.57.19 19.221 19.221 0 0 0 15.291-9.813 19.685 19.685 0 0 0 .142-18.641 17.8 17.8 0 0 0 -13.813-9.646c-.628-.065-1.769-.106-2.788-.13a19.214 19.214 0 0 0 -36.016 2.48 16.508 16.508 0 0 0 -5.41 30.585zm-2.131-16.148a10.513 10.513 0 0 1 10.072-8.67 3 3 0 0 0 2.906-2.607l.026-.206a13.211 13.211 0 0 1 25.6-1.575 3 3 0 0 0 2.838 2.107c1.27.011 3.555.057 4.279.132a11.664 11.664 0 0 1 9.12 6.464 13.7 13.7 0 0 1 -.09 12.971 13.208 13.208 0 0 1 -16.194 5.9 3 3 0 0 0 -4.049 2.559l-.234 2.838a13.208 13.208 0 0 1 -26-4.667l.045-.2a3 3 0 0 0 -1.835-3.449 10.514 10.514 0 0 1 -6.481-11.597z"/><path d="m308.51 168.118a17.015 17.015 0 0 0 -6.519 10.7 17.607 17.607 0 0 0 -3.713.031 17.157 17.157 0 0 0 -13.293 9.287 17.552 17.552 0 0 0 .526 16.615 15.907 15.907 0 0 0 12.678 8.127c.515.034 1.388.033 2.224.022a17.058 17.058 0 0 0 12.946 9.191 17.138 17.138 0 0 0 18.911-12.65 14.784 14.784 0 0 0 3.743-27.4 17.144 17.144 0 0 0 -27.5-13.929zm21.411 15.094-.031.17a3 3 0 0 0 1.969 3.369 8.78 8.78 0 0 1 -2.329 17.049 3 3 0 0 0 -2.8 2.727l-.015.166a11.141 11.141 0 0 1 -21.521 2.163 3 3 0 0 0 -2.826-2h-.093c-1.182.036-3.112.07-3.7.033a9.8 9.8 0 0 1 -7.864-5.131 11.567 11.567 0 0 1 -.356-10.949 11.092 11.092 0 0 1 8.6-6 11.214 11.214 0 0 1 4.85.494 3 3 0 0 0 3.944-2.718l.106-2.462a11.139 11.139 0 0 1 22.063 3.085z"/><path d="m446.918 71.989v-1.275a3.065 3.065 0 0 0 -.036-.459 12.887 12.887 0 0 0 -25.364-.547 12.418 12.418 0 0 0 -8.352 8.856 13.061 13.061 0 0 0 3.025 12.1 12.885 12.885 0 0 0 11.471 3.994l.105-.019a13.169 13.169 0 0 0 7.038-3.725 11.242 11.242 0 0 0 12.116-18.928zm-4.4 14.138a5.26 5.26 0 0 1 -5.91-1.437 3 3 0 0 0 -4.818.386 7.433 7.433 0 0 1 -5.114 3.665 6.9 6.9 0 0 1 -6.082-2.148 7.025 7.025 0 0 1 -1.594-6.636 6.683 6.683 0 0 1 5.55-4.825l.184-.029a3 3 0 0 0 2.538-2.939 6.883 6.883 0 0 1 13.645-1.185l.006 2.767a3 3 0 0 0 1.775 2.732 5.235 5.235 0 0 1 -.179 9.649z"/><path d="m399.118 38.975a9.461 9.461 0 0 0 8.639 2.855 9.421 9.421 0 0 0 6.962-5.521l.041-.1a9.627 9.627 0 0 0 .6-5 8.361 8.361 0 0 0 -7.234-14.958l-.254-.16a3.145 3.145 0 0 0 -.406-.214 9.43 9.43 0 0 0 -10.7 15.028 9.08 9.08 0 0 0 2.352 8.07zm1.451-15.814a3.428 3.428 0 0 1 4.329-1.853l1.435.905a3 3 0 0 0 3.258-.036 2.359 2.359 0 0 1 2.711.064 2.329 2.329 0 0 1 .916 2.309 2.383 2.383 0 0 1 -1.974 1.917 3 3 0 0 0 -2.256 4.275 3.8 3.8 0 0 1 .206 3.225 3.432 3.432 0 0 1 -2.516 1.961 3.549 3.549 0 0 1 -3.257-1.135 3.293 3.293 0 0 1 -.5-3.589l.048-.112a3 3 0 0 0 -1.128-3.7 3.4 3.4 0 0 1 -1.272-4.231z"/><path d="m470.279 15.24a8.364 8.364 0 0 0 -7.631-1.086l-.248-.154a2.926 2.926 0 0 0 -.407-.215 9.43 9.43 0 0 0 -10.7 15.028 9.079 9.079 0 0 0 2.35 8.07 9.459 9.459 0 0 0 8.638 2.855 9.419 9.419 0 0 0 6.962-5.522c.015-.032.029-.065.041-.1a9.624 9.624 0 0 0 .6-5 8.37 8.37 0 0 0 .395-13.872zm-2.541 7.215a2.381 2.381 0 0 1 -1.973 1.915 3 3 0 0 0 -2.255 4.276 3.806 3.806 0 0 1 .2 3.224 3.428 3.428 0 0 1 -2.516 1.961 3.55 3.55 0 0 1 -3.257-1.135 3.3 3.3 0 0 1 -.5-3.59l.048-.111a3 3 0 0 0 -1.129-3.705 3.4 3.4 0 0 1 -1.268-4.226 3.434 3.434 0 0 1 3.153-2.064 3.392 3.392 0 0 1 1.178.211l1.434.905a3 3 0 0 0 3.258-.036 2.363 2.363 0 0 1 2.712.064 2.33 2.33 0 0 1 .915 2.311z"/><path d="m310.478 69.662a14.413 14.413 0 0 0 3.378 14.026 15.336 15.336 0 0 0 11.044 4.812 15.119 15.119 0 0 0 2.71-.247 14.941 14.941 0 0 0 11.04-8.753c.015-.033.028-.065.041-.1a15.311 15.311 0 0 0 .605-9.713 12.963 12.963 0 1 0 -10.8-23.571l-1.588-1a3.032 3.032 0 0 0 -.406-.215 14.952 14.952 0 0 0 -16.029 24.762zm1.863-14.609a8.947 8.947 0 0 1 11.58-4.732l2.877 1.816a3 3 0 0 0 3.258-.037 6.958 6.958 0 1 1 4.878 12.676 3 3 0 0 0 -2.255 4.277 9.7 9.7 0 0 1 .446 8.107 8.949 8.949 0 0 1 -6.6 5.194 9.256 9.256 0 0 1 -8.368-2.849 8.708 8.708 0 0 1 -1.457-9.479l.09-.207a3 3 0 0 0 -1.124-3.715 8.892 8.892 0 0 1 -3.325-11.051z"/><path d="m342.226 139.3a14.94 14.94 0 0 0 6.155 12.678l.088.061a15.333 15.333 0 0 0 9.35 2.7 12.968 12.968 0 0 0 7.492 9.171 12.635 12.635 0 0 0 5.166 1.09 12.958 12.958 0 0 0 12.693-15.691l1.322-1.333a2.916 2.916 0 0 0 .3-.35 14.951 14.951 0 0 0 -20.7-21.015 14.42 14.42 0 0 0 -14.426.259 15.166 15.166 0 0 0 -7.44 12.43zm10.59-7.328a8.714 8.714 0 0 1 9.569.631l.182.133a3 3 0 0 0 3.872-.292 8.948 8.948 0 0 1 13.62 11.478l-2.4 2.415a3 3 0 0 0 -.671 3.188 6.959 6.959 0 1 1 -13.432 2.017 3 3 0 0 0 -3.685-3.129 9.7 9.7 0 0 1 -8.012-1.322 8.953 8.953 0 0 1 -3.642-7.566 9.264 9.264 0 0 1 4.599-7.55z"/><path d="m358.982 85.157a14.415 14.415 0 0 0 3.379 14.026 15.337 15.337 0 0 0 11.039 4.817 15.019 15.019 0 0 0 13.754-9c.015-.033.028-.065.041-.1a15.314 15.314 0 0 0 .6-9.712 12.963 12.963 0 1 0 -10.794-23.572l-1.589-1a3.025 3.025 0 0 0 -.406-.214 14.952 14.952 0 0 0 -16.03 24.761zm1.865-14.609a8.956 8.956 0 0 1 11.579-4.732l2.877 1.816a3 3 0 0 0 3.258-.036 6.958 6.958 0 1 1 4.879 12.675 3 3 0 0 0 -2.255 4.276 9.7 9.7 0 0 1 .445 8.107 8.949 8.949 0 0 1 -6.6 5.2 9.268 9.268 0 0 1 -8.367-2.854 8.71 8.71 0 0 1 -1.455-9.481l.09-.207a3 3 0 0 0 -1.126-3.712 8.891 8.891 0 0 1 -3.325-11.052z"/><path d="m341.044 227.908a3 3 0 0 0 4.21.526l9.435-7.339a3 3 0 0 0 -3.683-4.737l-9.436 7.34a3 3 0 0 0 -.526 4.21z"/><path d="m266.047 169.2-5.247 4.2a3 3 0 0 0 3.748 4.685l5.243-4.194a3 3 0 1 0 -3.748-4.685z"/><path d="m326.413 121.463 5.242-4.194a3 3 0 0 0 -3.748-4.686l-5.242 4.194a3 3 0 0 0 3.748 4.686z"/><path d="m404.226 154.624a2.987 2.987 0 0 0 1.872-.658l1.077-.861a3 3 0 0 0 -3.748-4.686l-1.077.861a3 3 0 0 0 1.876 5.344z"/><path d="m285.747 92.763a2.99 2.99 0 0 0 1.873-.658l1.076-.861a3 3 0 0 0 -3.75-4.685l-1.076.861a3 3 0 0 0 1.877 5.343z"/><path d="m359.142 47.678a2.988 2.988 0 0 0 1.661-.5l15.727-10.489a3 3 0 1 0 -3.33-4.989l-15.725 10.482a3 3 0 0 0 1.667 5.5z"/><path d="m407.634 108.938a3 3 0 0 0 -4.219-.448l-11.561 9.346a3 3 0 1 0 3.771 4.666l11.562-9.346a3 3 0 0 0 .447-4.218z"/><path d="m416.406 53.681a3 3 0 0 0 4.16.832l4.027-2.684a3 3 0 1 0 -3.328-4.992l-4.027 2.684a3 3 0 0 0 -.832 4.16z"/><path d="m205.357 499a3 3 0 0 0 2.563-1.439l121.074-198.787c5.308-.39 7.2-2.217 8.05-4.184 1.726-3.993-1.294-8.87-9.749-15.7a14.013 14.013 0 0 0 -.066-1.671 17.14 17.14 0 0 0 -16.478-29.925c-.84-2.035-2.068-4.876-3.745-8.665l-.118-.267c-4.426-10.021-14.433-18.1-24.9-20.1a26.2 26.2 0 0 0 -18.351 3.078 14.8 14.8 0 0 0 -4.329-8.612 17.121 17.121 0 0 0 -26.4-18.828c1.219-11.262-4.158-20.316-15.462-25.184-7.669-3.3-17.9-4.159-23.054-1.417-5.05-4.4-10.116-6.276-15.087-5.573-5.763.817-9.711 4.942-11.672 7.545-9.732-3.131-17.476-2.7-23.051 1.3-5.366 3.843-7.252 10-7.91 14.1-10.071-3.053-16.051-.082-19.227 2.788-11.578-1.774-17.592-.7-19.385 3.431-.853 1.964-.9 4.6 2.5 8.79l-13.408 48.311a3 3 0 0 0 1.555 3.488 3 3 0 0 0 4.227-1.885l12.485-45a148.979 148.979 0 0 0 18.629 13.332l-67.82 217.221q-5.935-5.379-11.659-11.23l35.84-129.177a3 3 0 0 0 -1.555-3.489 3 3 0 0 0 -4.227 1.885l-36.3 130.832a3 3 0 0 0 .73 2.884c45.812 47.563 101.758 71.836 166.286 72.148zm-93.679-297c-6.778-5.471-7.87-8.034-8.041-8.7.553-.306 2.809-1.136 9.859-.329a21.32 21.32 0 0 0 -1.818 9.029zm219.788 90.175c-.586.318-3.052 1.216-10.984.187a18.044 18.044 0 0 0 3.049-3.092 18.623 18.623 0 0 0 2.255-3.816c4.69 4.122 5.533 6.139 5.68 6.72zm-101.4-84.665a3 3 0 0 0 1.88-1.9l.769-2.342a11.139 11.139 0 0 1 20.409 8.928l-.074.151a3 3 0 0 0 .982 3.784 8.778 8.778 0 0 1 -6.848 15.782 3 3 0 0 0 -3.43 1.855l-.063.164a11.14 11.14 0 0 1 -21.306-3.727 3 3 0 0 0 -2.272-2.708c-1.148-.285-3.014-.774-3.568-.969a9.8 9.8 0 0 1 -6.186-7.065 11.566 11.566 0 0 1 2.617-10.637 11.092 11.092 0 0 1 8.176-3.591 10.791 10.791 0 0 1 1.727.138 11.216 11.216 0 0 1 4.535 1.786 3 3 0 0 0 2.654.35zm-111.325-.259c-1.831-3.98-1.495-10.708 2.036-14.66 4.433-4.961 11.906-3.292 17.4-1.019a3 3 0 0 0 4.146-2.84c0-.09-.045-9.138 5.753-13.291 4.287-3.07 10.926-2.993 19.735.228a3.01 3.01 0 0 0 3.658-1.371c.033-.058 3.337-5.9 8.711-6.642 3.659-.5 7.7 1.444 12 5.791a3 3 0 0 0 4.813-.768c1.738-1.548 13.369-2.164 22.277 3.81 7.724 5.179 9.779 13.013 6.157 23.3-.524-.134-1.052-.256-1.593-.343a17.14 17.14 0 0 0 -15.304 5.354 17.549 17.549 0 0 0 -3.984 16.139 15.908 15.908 0 0 0 10.011 11.251c.487.171 1.331.408 2.135.623a17.145 17.145 0 0 0 31.608 5.277 14.805 14.805 0 0 0 13.96-8.258 20.515 20.515 0 0 1 18.6-5.679c8.621 1.65 16.875 8.334 20.541 16.634l.12.269c3.781 8.548 4.635 10.836 4.807 11.439a3 3 0 0 0 4.469 1.723l2.093-1.3a11.139 11.139 0 0 1 9.9 19.955l-.156.07a3 3 0 0 0 -1.628 3.67c.825 2.53-.089 6.229-2.225 9a11.736 11.736 0 0 1 -10.324 4.515c-4.148-.95-9.02-2.207-14.746-3.859-22.88-6.6-51.952-17.386-81.862-30.369-18.4-7.988-35.69-16.164-51.4-24.3-11.926-6.171-22.445-12.07-31.266-17.534-4.11-2.547-7.547-4.805-10.44-6.816zm-57.588 232.249 68.166-218.33c7.628 4.6 16.379 9.482 26.065 14.543l-75.754 218.173q-9.46-6.637-18.477-14.386zm23.615 17.88 76-218.884q13.291 6.8 27.912 13.58l-84.634 216.682a217.38 217.38 0 0 1 -19.278-11.378zm32.148 17.568c-2.515-1.1-5.008-2.272-7.489-3.478l84.716-216.89q7.522 3.424 15.315 6.815 6.988 3.033 13.877 5.888l-95.242 212.159q-5.661-2.092-11.177-4.494zm16.855 6.5 95.117-211.878c10.509 4.283 20.748 8.226 30.491 11.742l-106.025 205.715q-9.986-2.333-19.583-5.582zm25.653 6.9 105.659-205.008c10.463 3.669 20.276 6.808 29.141 9.305l-112.47 199.1q-11.365-1.162-22.33-3.397zm28.9 3.97 111.876-198.048a145.171 145.171 0 0 0 21.877 4.328l-118.396 194.388c-5.175-.059-10.292-.292-15.359-.668z"/></g></svg>