<svg id="Capa_1" enable-background="new 0 0 512 512" height="512" viewBox="0 0 512 512" width="512" xmlns="http://www.w3.org/2000/svg" xmlns:xlink="http://www.w3.org/1999/xlink"><linearGradient id="SVGID_1_" gradientUnits="userSpaceOnUse" x1="256" x2="256" y1="512" y2="0"><stop offset="0" stop-color="#5558ff"/><stop offset="1" stop-color="#00c0ff"/></linearGradient><g><g><g><path d="m180 151c-57.897 0-105 47.103-105 105s47.103 105 105 105 105-47.103 105-105-47.103-105-105-105zm0 180c-41.355 0-75-33.645-75-75s33.645-75 75-75 75 33.645 75 75-33.645 75-75 75zm317-150h-15v-105c0-24.813-20.187-45-45-45s-45 20.187-45 45v262.918c0 46.202 10.922 92.465 31.584 133.79 2.54 5.082 7.734 8.292 13.416 8.292s10.876-3.21 13.416-8.292c20.662-41.325 31.584-87.588 31.584-133.79v-127.918h15c8.284 0 15-6.716 15-15s-6.716-15-15-15zm-45 157.918c0 30.045-5.135 60.122-15 88.526-9.865-28.404-15-58.481-15-88.526v-127.918h30zm0-157.918h-30v-105c0-8.271 6.729-15 15-15s15 6.729 15 15zm-197 210h-150c-8.284 0-15 6.716-15 15s6.716 15 15 15h150c8.284 0 15-6.716 15-15s-6.716-15-15-15zm60-361h-62.58c-6.192-17.458-22.865-30-42.42-30h-60c-19.555 0-36.228 12.542-42.42 30h-62.58c-24.813 0-45 20.187-45 45v392c0 24.813 20.187 45 45 45h270c24.813 0 45-20.187 45-45v-392c0-24.813-20.187-45-45-45zm-180 15c0-8.271 6.729-15 15-15h60c8.271 0 15 6.729 15 15v15h-90zm195 422c0 8.271-6.729 15-15 15h-270c-8.271 0-15-6.729-15-15v-392c0-8.271 6.729-15 15-15h60v15c0 8.284 6.716 15 15 15h120c8.284 0 15-6.716 15-15v-15h60c8.271 0 15 6.729 15 15zm-120-226h-15v-15c0-8.284-6.716-15-15-15s-15 6.716-15 15v15h-15c-8.284 0-15 6.716-15 15s6.716 15 15 15h15v15c0 8.284 6.716 15 15 15s15-6.716 15-15v-15h15c8.284 0 15-6.716 15-15s-6.716-15-15-15z" fill="url(#SVGID_1_)"/></g></g></g></svg>