<svg height="512" width="512" xmlns="http://www.w3.org/2000/svg"><linearGradient id="a" gradientUnits="userSpaceOnUse" x1="256" x2="256" y1="512" y2="0"><stop offset="0" stop-color="#5558ff"/><stop offset="1" stop-color="#00c0ff"/></linearGradient><path d="M180 151c-57.897 0-105 47.103-105 105s47.103 105 105 105 105-47.103 105-105-47.103-105-105-105zm0 180c-41.355 0-75-33.645-75-75s33.645-75 75-75 75 33.645 75 75-33.645 75-75 75zm317-150h-15V76c0-24.813-20.187-45-45-45s-45 20.187-45 45v262.918c0 46.202 10.922 92.465 31.584 133.79a14.998 14.998 0 0026.832 0C471.078 431.383 482 385.12 482 338.918V211h15c8.284 0 15-6.716 15-15s-6.716-15-15-15zm-45 157.918c0 30.045-5.135 60.122-15 88.526-9.865-28.404-15-58.481-15-88.526V211h30zM452 181h-30V76c0-8.271 6.729-15 15-15s15 6.729 15 15zM255 391H105c-8.284 0-15 6.716-15 15s6.716 15 15 15h150c8.284 0 15-6.716 15-15s-6.716-15-15-15zm60-361h-62.58C246.228 12.542 229.555 0 210 0h-60c-19.555 0-36.228 12.542-42.42 30H45C20.187 30 0 50.187 0 75v392c0 24.813 20.187 45 45 45h270c24.813 0 45-20.187 45-45V75c0-24.813-20.187-45-45-45zM135 45c0-8.271 6.729-15 15-15h60c8.271 0 15 6.729 15 15v15h-90zm195 422c0 8.271-6.729 15-15 15H45c-8.271 0-15-6.729-15-15V75c0-8.271 6.729-15 15-15h60v15c0 8.284 6.716 15 15 15h120c8.284 0 15-6.716 15-15V60h60c8.271 0 15 6.729 15 15zM210 241h-15v-15c0-8.284-6.716-15-15-15s-15 6.716-15 15v15h-15c-8.284 0-15 6.716-15 15s6.716 15 15 15h15v15c0 8.284 6.716 15 15 15s15-6.716 15-15v-15h15c8.284 0 15-6.716 15-15s-6.716-15-15-15z" fill="url(#a)"/></svg>